{"title":"Aqua TV Show Show S01E01 - 720p XBOX360/PS3 READY","uid":8806694,"size":199180898,"categoryP":"video","categoryS":"hd___tv_shows","magnet":"?xt=urn:btih:a0448550582feb4e32fc7725db3de095b7c57591&amp;dn=Aqua+TV+Show+Show+S01E01+-+720p+XBOX360%2FPS3+READY&amp;tr=udp%3A%2F%2Ftracker.openbittorrent.com%3A80&amp;tr=udp%3A%2F%2Fopen.demonii.com%3A1337&amp;tr=udp%3A%2F%2Ftracker.coppersurfer.tk%3A6969&amp;tr=udp%3A%2F%2Fexodus.desync.com%3A6969","seeders":3,"leechers":0,"uploader":"Danimal1q2w3","files":1,"time":1376350348,"description":"Video\nID                                       : 0\nFormat                                   : MPEG-4 Visual\nFormat profile                           : Simple@L3\nFormat settings, BVOP                    : No\nFormat settings, QPel                    : No\nFormat settings, GMC                     : No warppoints\nFormat settings, Matrix                  : Default (H.263)\nCodec ID                                 : XVID\nCodec ID/Hint                            : XviD\nDuration                                 : 11mn 34s\nBit rate                                 : 1 979 Kbps\nWidth                                    : 1 280 pixels\nHeight                                   : 720 pixels\nDisplay aspect ratio                     : 16:9\nFrame rate                               : 30.000 fps\nColor space                              : YUV\nChroma subsampling                       : 4:2:0\nBit depth                                : 8 bits\nScan type                                : Progressive\nCompression mode                         : Lossy\nBits/(Pixel*Frame)                       : 0.072\nStream size                              : 164 MiB (86%)\nWriting library                          : XviD 63\n\nAudio\nID                                       : 1\nFormat                                   : MPEG Audio\nFormat version                           : Version 1\nFormat profile                           : Layer 3\nMode                                     : Joint stereo\nMode extension                           : MS Stereo\nCodec ID                                 : 55\nCodec ID/Hint                            : MP3\nDuration                                 : 11mn 34s\nBit rate mode                            : Constant\nBit rate                                 : 32.0 Kbps\nChannel(s)                               : 2 channels\nSampling rate                            : 48.0 KHz\nCompression mode                         : Lossy\nStream size                              : 25.0 MiB (13%)\nAlignment                                : Aligned on interleaves\nInterleave, duration                     : 24 ms (0.72 video frame)\nInterleave, preload duration             : 53 ms\nWriting library                          : LAME3.98.4\n\n\n\nTAKING REQUESTS\n","torrent":{"xt":"urn:btih:a0448550582feb4e32fc7725db3de095b7c57591","amp;dn":"Aqua+TV+Show+Show+S01E01+-+720p+XBOX360%2FPS3+READY","amp;tr":["udp%3A%2F%2Ftracker.openbittorrent.com%3A80","udp%3A%2F%2Fopen.demonii.com%3A1337","udp%3A%2F%2Ftracker.coppersurfer.tk%3A6969","udp%3A%2F%2Fexodus.desync.com%3A6969"],"infoHash":"a0448550582feb4e32fc7725db3de095b7c57591","infoHashBuffer":{"type":"Buffer","data":[160,68,133,80,88,47,235,78,50,252,119,37,219,61,224,149,183,197,117,145]},"announce":[],"urlList":[]}}